%TF.GenerationSoftware,KiCad,Pcbnew,8.0.1*%
%TF.CreationDate,2024-05-13T16:53:03-04:00*%
%TF.ProjectId,LM1085,4c4d3130-3835-42e6-9b69-6361645f7063,rev?*%
%TF.SameCoordinates,Original*%
%TF.FileFunction,Drillmap*%
%TF.FilePolarity,Positive*%
%FSLAX45Y45*%
G04 Gerber Fmt 4.5, Leading zero omitted, Abs format (unit mm)*
G04 Created by KiCad (PCBNEW 8.0.1) date 2024-05-13 16:53:03*
%MOMM*%
%LPD*%
G01*
G04 APERTURE LIST*
%ADD10C,0.150000*%
%ADD11C,0.200000*%
%ADD12C,0.100000*%
G04 APERTURE END LIST*
D10*
X13335049Y-12001500D02*
X13334951Y-9398000D01*
X16890951Y-9398000D02*
X16890976Y-12001500D01*
X16890976Y-12001500D02*
X13335049Y-12001500D01*
X13334951Y-9398000D02*
X16890951Y-9398000D01*
D11*
D12*
X14119743Y-9755000D02*
X14159743Y-9795000D01*
X14159743Y-9755000D02*
X14119743Y-9795000D01*
X14119743Y-10394000D02*
X14159743Y-10434000D01*
X14159743Y-10394000D02*
X14119743Y-10434000D01*
X14204000Y-11180000D02*
X14244000Y-11220000D01*
X14244000Y-11180000D02*
X14204000Y-11220000D01*
X14712000Y-9755000D02*
X14752000Y-9795000D01*
X14752000Y-9755000D02*
X14712000Y-9795000D01*
X14712000Y-11180000D02*
X14752000Y-11220000D01*
X14752000Y-11180000D02*
X14712000Y-11220000D01*
X15220000Y-11180000D02*
X15260000Y-11220000D01*
X15260000Y-11180000D02*
X15220000Y-11220000D01*
X15300991Y-9755000D02*
X15340991Y-9795000D01*
X15340991Y-9755000D02*
X15300991Y-9795000D01*
X15474000Y-11060000D02*
X15514000Y-11100000D01*
X15514000Y-11060000D02*
X15474000Y-11100000D01*
X15728000Y-11180000D02*
X15768000Y-11220000D01*
X15768000Y-11180000D02*
X15728000Y-11220000D01*
X15980000Y-9755000D02*
X16020000Y-9795000D01*
X16020000Y-9755000D02*
X15980000Y-9795000D01*
X15980000Y-10460000D02*
X16020000Y-10500000D01*
X16020000Y-10460000D02*
X15980000Y-10500000D01*
X15980000Y-11060000D02*
X16020000Y-11100000D01*
X16020000Y-11060000D02*
X15980000Y-11100000D01*
D11*
X13588228Y-12320484D02*
X13588228Y-12120484D01*
X13588228Y-12120484D02*
X13635847Y-12120484D01*
X13635847Y-12120484D02*
X13664418Y-12130008D01*
X13664418Y-12130008D02*
X13683466Y-12149055D01*
X13683466Y-12149055D02*
X13692990Y-12168103D01*
X13692990Y-12168103D02*
X13702514Y-12206198D01*
X13702514Y-12206198D02*
X13702514Y-12234769D01*
X13702514Y-12234769D02*
X13692990Y-12272865D01*
X13692990Y-12272865D02*
X13683466Y-12291912D01*
X13683466Y-12291912D02*
X13664418Y-12310960D01*
X13664418Y-12310960D02*
X13635847Y-12320484D01*
X13635847Y-12320484D02*
X13588228Y-12320484D01*
X13788228Y-12320484D02*
X13788228Y-12187150D01*
X13788228Y-12225246D02*
X13797752Y-12206198D01*
X13797752Y-12206198D02*
X13807275Y-12196674D01*
X13807275Y-12196674D02*
X13826323Y-12187150D01*
X13826323Y-12187150D02*
X13845371Y-12187150D01*
X13912037Y-12320484D02*
X13912037Y-12187150D01*
X13912037Y-12120484D02*
X13902514Y-12130008D01*
X13902514Y-12130008D02*
X13912037Y-12139531D01*
X13912037Y-12139531D02*
X13921561Y-12130008D01*
X13921561Y-12130008D02*
X13912037Y-12120484D01*
X13912037Y-12120484D02*
X13912037Y-12139531D01*
X14035847Y-12320484D02*
X14016799Y-12310960D01*
X14016799Y-12310960D02*
X14007275Y-12291912D01*
X14007275Y-12291912D02*
X14007275Y-12120484D01*
X14140609Y-12320484D02*
X14121561Y-12310960D01*
X14121561Y-12310960D02*
X14112037Y-12291912D01*
X14112037Y-12291912D02*
X14112037Y-12120484D01*
X14369180Y-12320484D02*
X14369180Y-12120484D01*
X14369180Y-12120484D02*
X14435847Y-12263341D01*
X14435847Y-12263341D02*
X14502514Y-12120484D01*
X14502514Y-12120484D02*
X14502514Y-12320484D01*
X14683466Y-12320484D02*
X14683466Y-12215722D01*
X14683466Y-12215722D02*
X14673942Y-12196674D01*
X14673942Y-12196674D02*
X14654895Y-12187150D01*
X14654895Y-12187150D02*
X14616799Y-12187150D01*
X14616799Y-12187150D02*
X14597752Y-12196674D01*
X14683466Y-12310960D02*
X14664418Y-12320484D01*
X14664418Y-12320484D02*
X14616799Y-12320484D01*
X14616799Y-12320484D02*
X14597752Y-12310960D01*
X14597752Y-12310960D02*
X14588228Y-12291912D01*
X14588228Y-12291912D02*
X14588228Y-12272865D01*
X14588228Y-12272865D02*
X14597752Y-12253817D01*
X14597752Y-12253817D02*
X14616799Y-12244293D01*
X14616799Y-12244293D02*
X14664418Y-12244293D01*
X14664418Y-12244293D02*
X14683466Y-12234769D01*
X14778704Y-12187150D02*
X14778704Y-12387150D01*
X14778704Y-12196674D02*
X14797752Y-12187150D01*
X14797752Y-12187150D02*
X14835847Y-12187150D01*
X14835847Y-12187150D02*
X14854895Y-12196674D01*
X14854895Y-12196674D02*
X14864418Y-12206198D01*
X14864418Y-12206198D02*
X14873942Y-12225246D01*
X14873942Y-12225246D02*
X14873942Y-12282388D01*
X14873942Y-12282388D02*
X14864418Y-12301436D01*
X14864418Y-12301436D02*
X14854895Y-12310960D01*
X14854895Y-12310960D02*
X14835847Y-12320484D01*
X14835847Y-12320484D02*
X14797752Y-12320484D01*
X14797752Y-12320484D02*
X14778704Y-12310960D01*
X14959656Y-12301436D02*
X14969180Y-12310960D01*
X14969180Y-12310960D02*
X14959656Y-12320484D01*
X14959656Y-12320484D02*
X14950133Y-12310960D01*
X14950133Y-12310960D02*
X14959656Y-12301436D01*
X14959656Y-12301436D02*
X14959656Y-12320484D01*
X14959656Y-12196674D02*
X14969180Y-12206198D01*
X14969180Y-12206198D02*
X14959656Y-12215722D01*
X14959656Y-12215722D02*
X14950133Y-12206198D01*
X14950133Y-12206198D02*
X14959656Y-12196674D01*
X14959656Y-12196674D02*
X14959656Y-12215722D01*
D12*
X13287451Y-12629000D02*
X13327451Y-12669000D01*
X13327451Y-12629000D02*
X13287451Y-12669000D01*
D11*
X13626323Y-12540484D02*
X13645371Y-12540484D01*
X13645371Y-12540484D02*
X13664418Y-12550008D01*
X13664418Y-12550008D02*
X13673942Y-12559531D01*
X13673942Y-12559531D02*
X13683466Y-12578579D01*
X13683466Y-12578579D02*
X13692990Y-12616674D01*
X13692990Y-12616674D02*
X13692990Y-12664293D01*
X13692990Y-12664293D02*
X13683466Y-12702388D01*
X13683466Y-12702388D02*
X13673942Y-12721436D01*
X13673942Y-12721436D02*
X13664418Y-12730960D01*
X13664418Y-12730960D02*
X13645371Y-12740484D01*
X13645371Y-12740484D02*
X13626323Y-12740484D01*
X13626323Y-12740484D02*
X13607275Y-12730960D01*
X13607275Y-12730960D02*
X13597752Y-12721436D01*
X13597752Y-12721436D02*
X13588228Y-12702388D01*
X13588228Y-12702388D02*
X13578704Y-12664293D01*
X13578704Y-12664293D02*
X13578704Y-12616674D01*
X13578704Y-12616674D02*
X13588228Y-12578579D01*
X13588228Y-12578579D02*
X13597752Y-12559531D01*
X13597752Y-12559531D02*
X13607275Y-12550008D01*
X13607275Y-12550008D02*
X13626323Y-12540484D01*
X13778704Y-12721436D02*
X13788228Y-12730960D01*
X13788228Y-12730960D02*
X13778704Y-12740484D01*
X13778704Y-12740484D02*
X13769180Y-12730960D01*
X13769180Y-12730960D02*
X13778704Y-12721436D01*
X13778704Y-12721436D02*
X13778704Y-12740484D01*
X13959656Y-12607150D02*
X13959656Y-12740484D01*
X13912037Y-12530960D02*
X13864418Y-12673817D01*
X13864418Y-12673817D02*
X13988228Y-12673817D01*
X14102514Y-12540484D02*
X14121561Y-12540484D01*
X14121561Y-12540484D02*
X14140609Y-12550008D01*
X14140609Y-12550008D02*
X14150133Y-12559531D01*
X14150133Y-12559531D02*
X14159656Y-12578579D01*
X14159656Y-12578579D02*
X14169180Y-12616674D01*
X14169180Y-12616674D02*
X14169180Y-12664293D01*
X14169180Y-12664293D02*
X14159656Y-12702388D01*
X14159656Y-12702388D02*
X14150133Y-12721436D01*
X14150133Y-12721436D02*
X14140609Y-12730960D01*
X14140609Y-12730960D02*
X14121561Y-12740484D01*
X14121561Y-12740484D02*
X14102514Y-12740484D01*
X14102514Y-12740484D02*
X14083466Y-12730960D01*
X14083466Y-12730960D02*
X14073942Y-12721436D01*
X14073942Y-12721436D02*
X14064418Y-12702388D01*
X14064418Y-12702388D02*
X14054895Y-12664293D01*
X14054895Y-12664293D02*
X14054895Y-12616674D01*
X14054895Y-12616674D02*
X14064418Y-12578579D01*
X14064418Y-12578579D02*
X14073942Y-12559531D01*
X14073942Y-12559531D02*
X14083466Y-12550008D01*
X14083466Y-12550008D02*
X14102514Y-12540484D01*
X14292990Y-12540484D02*
X14312037Y-12540484D01*
X14312037Y-12540484D02*
X14331085Y-12550008D01*
X14331085Y-12550008D02*
X14340609Y-12559531D01*
X14340609Y-12559531D02*
X14350133Y-12578579D01*
X14350133Y-12578579D02*
X14359656Y-12616674D01*
X14359656Y-12616674D02*
X14359656Y-12664293D01*
X14359656Y-12664293D02*
X14350133Y-12702388D01*
X14350133Y-12702388D02*
X14340609Y-12721436D01*
X14340609Y-12721436D02*
X14331085Y-12730960D01*
X14331085Y-12730960D02*
X14312037Y-12740484D01*
X14312037Y-12740484D02*
X14292990Y-12740484D01*
X14292990Y-12740484D02*
X14273942Y-12730960D01*
X14273942Y-12730960D02*
X14264418Y-12721436D01*
X14264418Y-12721436D02*
X14254895Y-12702388D01*
X14254895Y-12702388D02*
X14245371Y-12664293D01*
X14245371Y-12664293D02*
X14245371Y-12616674D01*
X14245371Y-12616674D02*
X14254895Y-12578579D01*
X14254895Y-12578579D02*
X14264418Y-12559531D01*
X14264418Y-12559531D02*
X14273942Y-12550008D01*
X14273942Y-12550008D02*
X14292990Y-12540484D01*
X14445371Y-12740484D02*
X14445371Y-12607150D01*
X14445371Y-12626198D02*
X14454895Y-12616674D01*
X14454895Y-12616674D02*
X14473942Y-12607150D01*
X14473942Y-12607150D02*
X14502514Y-12607150D01*
X14502514Y-12607150D02*
X14521561Y-12616674D01*
X14521561Y-12616674D02*
X14531085Y-12635722D01*
X14531085Y-12635722D02*
X14531085Y-12740484D01*
X14531085Y-12635722D02*
X14540609Y-12616674D01*
X14540609Y-12616674D02*
X14559656Y-12607150D01*
X14559656Y-12607150D02*
X14588228Y-12607150D01*
X14588228Y-12607150D02*
X14607276Y-12616674D01*
X14607276Y-12616674D02*
X14616799Y-12635722D01*
X14616799Y-12635722D02*
X14616799Y-12740484D01*
X14712037Y-12740484D02*
X14712037Y-12607150D01*
X14712037Y-12626198D02*
X14721561Y-12616674D01*
X14721561Y-12616674D02*
X14740609Y-12607150D01*
X14740609Y-12607150D02*
X14769180Y-12607150D01*
X14769180Y-12607150D02*
X14788228Y-12616674D01*
X14788228Y-12616674D02*
X14797752Y-12635722D01*
X14797752Y-12635722D02*
X14797752Y-12740484D01*
X14797752Y-12635722D02*
X14807276Y-12616674D01*
X14807276Y-12616674D02*
X14826323Y-12607150D01*
X14826323Y-12607150D02*
X14854895Y-12607150D01*
X14854895Y-12607150D02*
X14873942Y-12616674D01*
X14873942Y-12616674D02*
X14883466Y-12635722D01*
X14883466Y-12635722D02*
X14883466Y-12740484D01*
X15273942Y-12530960D02*
X15102514Y-12788103D01*
X15531085Y-12540484D02*
X15550133Y-12540484D01*
X15550133Y-12540484D02*
X15569180Y-12550008D01*
X15569180Y-12550008D02*
X15578704Y-12559531D01*
X15578704Y-12559531D02*
X15588228Y-12578579D01*
X15588228Y-12578579D02*
X15597752Y-12616674D01*
X15597752Y-12616674D02*
X15597752Y-12664293D01*
X15597752Y-12664293D02*
X15588228Y-12702388D01*
X15588228Y-12702388D02*
X15578704Y-12721436D01*
X15578704Y-12721436D02*
X15569180Y-12730960D01*
X15569180Y-12730960D02*
X15550133Y-12740484D01*
X15550133Y-12740484D02*
X15531085Y-12740484D01*
X15531085Y-12740484D02*
X15512038Y-12730960D01*
X15512038Y-12730960D02*
X15502514Y-12721436D01*
X15502514Y-12721436D02*
X15492990Y-12702388D01*
X15492990Y-12702388D02*
X15483466Y-12664293D01*
X15483466Y-12664293D02*
X15483466Y-12616674D01*
X15483466Y-12616674D02*
X15492990Y-12578579D01*
X15492990Y-12578579D02*
X15502514Y-12559531D01*
X15502514Y-12559531D02*
X15512038Y-12550008D01*
X15512038Y-12550008D02*
X15531085Y-12540484D01*
X15683466Y-12721436D02*
X15692990Y-12730960D01*
X15692990Y-12730960D02*
X15683466Y-12740484D01*
X15683466Y-12740484D02*
X15673942Y-12730960D01*
X15673942Y-12730960D02*
X15683466Y-12721436D01*
X15683466Y-12721436D02*
X15683466Y-12740484D01*
X15816799Y-12540484D02*
X15835847Y-12540484D01*
X15835847Y-12540484D02*
X15854895Y-12550008D01*
X15854895Y-12550008D02*
X15864419Y-12559531D01*
X15864419Y-12559531D02*
X15873942Y-12578579D01*
X15873942Y-12578579D02*
X15883466Y-12616674D01*
X15883466Y-12616674D02*
X15883466Y-12664293D01*
X15883466Y-12664293D02*
X15873942Y-12702388D01*
X15873942Y-12702388D02*
X15864419Y-12721436D01*
X15864419Y-12721436D02*
X15854895Y-12730960D01*
X15854895Y-12730960D02*
X15835847Y-12740484D01*
X15835847Y-12740484D02*
X15816799Y-12740484D01*
X15816799Y-12740484D02*
X15797752Y-12730960D01*
X15797752Y-12730960D02*
X15788228Y-12721436D01*
X15788228Y-12721436D02*
X15778704Y-12702388D01*
X15778704Y-12702388D02*
X15769180Y-12664293D01*
X15769180Y-12664293D02*
X15769180Y-12616674D01*
X15769180Y-12616674D02*
X15778704Y-12578579D01*
X15778704Y-12578579D02*
X15788228Y-12559531D01*
X15788228Y-12559531D02*
X15797752Y-12550008D01*
X15797752Y-12550008D02*
X15816799Y-12540484D01*
X16073942Y-12740484D02*
X15959657Y-12740484D01*
X16016799Y-12740484D02*
X16016799Y-12540484D01*
X16016799Y-12540484D02*
X15997752Y-12569055D01*
X15997752Y-12569055D02*
X15978704Y-12588103D01*
X15978704Y-12588103D02*
X15959657Y-12597627D01*
X16254895Y-12540484D02*
X16159657Y-12540484D01*
X16159657Y-12540484D02*
X16150133Y-12635722D01*
X16150133Y-12635722D02*
X16159657Y-12626198D01*
X16159657Y-12626198D02*
X16178704Y-12616674D01*
X16178704Y-12616674D02*
X16226323Y-12616674D01*
X16226323Y-12616674D02*
X16245371Y-12626198D01*
X16245371Y-12626198D02*
X16254895Y-12635722D01*
X16254895Y-12635722D02*
X16264419Y-12654769D01*
X16264419Y-12654769D02*
X16264419Y-12702388D01*
X16264419Y-12702388D02*
X16254895Y-12721436D01*
X16254895Y-12721436D02*
X16245371Y-12730960D01*
X16245371Y-12730960D02*
X16226323Y-12740484D01*
X16226323Y-12740484D02*
X16178704Y-12740484D01*
X16178704Y-12740484D02*
X16159657Y-12730960D01*
X16159657Y-12730960D02*
X16150133Y-12721436D01*
X16331085Y-12540484D02*
X16464419Y-12540484D01*
X16464419Y-12540484D02*
X16378704Y-12740484D01*
X16531085Y-12540484D02*
X16531085Y-12578579D01*
X16607276Y-12540484D02*
X16607276Y-12578579D01*
X16902514Y-12816674D02*
X16892990Y-12807150D01*
X16892990Y-12807150D02*
X16873943Y-12778579D01*
X16873943Y-12778579D02*
X16864419Y-12759531D01*
X16864419Y-12759531D02*
X16854895Y-12730960D01*
X16854895Y-12730960D02*
X16845371Y-12683341D01*
X16845371Y-12683341D02*
X16845371Y-12645246D01*
X16845371Y-12645246D02*
X16854895Y-12597627D01*
X16854895Y-12597627D02*
X16864419Y-12569055D01*
X16864419Y-12569055D02*
X16873943Y-12550008D01*
X16873943Y-12550008D02*
X16892990Y-12521436D01*
X16892990Y-12521436D02*
X16902514Y-12511912D01*
X17083466Y-12740484D02*
X16969181Y-12740484D01*
X17026323Y-12740484D02*
X17026323Y-12540484D01*
X17026323Y-12540484D02*
X17007276Y-12569055D01*
X17007276Y-12569055D02*
X16988228Y-12588103D01*
X16988228Y-12588103D02*
X16969181Y-12597627D01*
X17159657Y-12559531D02*
X17169181Y-12550008D01*
X17169181Y-12550008D02*
X17188228Y-12540484D01*
X17188228Y-12540484D02*
X17235847Y-12540484D01*
X17235847Y-12540484D02*
X17254895Y-12550008D01*
X17254895Y-12550008D02*
X17264419Y-12559531D01*
X17264419Y-12559531D02*
X17273943Y-12578579D01*
X17273943Y-12578579D02*
X17273943Y-12597627D01*
X17273943Y-12597627D02*
X17264419Y-12626198D01*
X17264419Y-12626198D02*
X17150133Y-12740484D01*
X17150133Y-12740484D02*
X17273943Y-12740484D01*
X17512038Y-12740484D02*
X17512038Y-12540484D01*
X17597752Y-12740484D02*
X17597752Y-12635722D01*
X17597752Y-12635722D02*
X17588228Y-12616674D01*
X17588228Y-12616674D02*
X17569181Y-12607150D01*
X17569181Y-12607150D02*
X17540609Y-12607150D01*
X17540609Y-12607150D02*
X17521562Y-12616674D01*
X17521562Y-12616674D02*
X17512038Y-12626198D01*
X17721562Y-12740484D02*
X17702514Y-12730960D01*
X17702514Y-12730960D02*
X17692990Y-12721436D01*
X17692990Y-12721436D02*
X17683466Y-12702388D01*
X17683466Y-12702388D02*
X17683466Y-12645246D01*
X17683466Y-12645246D02*
X17692990Y-12626198D01*
X17692990Y-12626198D02*
X17702514Y-12616674D01*
X17702514Y-12616674D02*
X17721562Y-12607150D01*
X17721562Y-12607150D02*
X17750133Y-12607150D01*
X17750133Y-12607150D02*
X17769181Y-12616674D01*
X17769181Y-12616674D02*
X17778705Y-12626198D01*
X17778705Y-12626198D02*
X17788228Y-12645246D01*
X17788228Y-12645246D02*
X17788228Y-12702388D01*
X17788228Y-12702388D02*
X17778705Y-12721436D01*
X17778705Y-12721436D02*
X17769181Y-12730960D01*
X17769181Y-12730960D02*
X17750133Y-12740484D01*
X17750133Y-12740484D02*
X17721562Y-12740484D01*
X17902514Y-12740484D02*
X17883466Y-12730960D01*
X17883466Y-12730960D02*
X17873943Y-12711912D01*
X17873943Y-12711912D02*
X17873943Y-12540484D01*
X18054895Y-12730960D02*
X18035847Y-12740484D01*
X18035847Y-12740484D02*
X17997752Y-12740484D01*
X17997752Y-12740484D02*
X17978705Y-12730960D01*
X17978705Y-12730960D02*
X17969181Y-12711912D01*
X17969181Y-12711912D02*
X17969181Y-12635722D01*
X17969181Y-12635722D02*
X17978705Y-12616674D01*
X17978705Y-12616674D02*
X17997752Y-12607150D01*
X17997752Y-12607150D02*
X18035847Y-12607150D01*
X18035847Y-12607150D02*
X18054895Y-12616674D01*
X18054895Y-12616674D02*
X18064419Y-12635722D01*
X18064419Y-12635722D02*
X18064419Y-12654769D01*
X18064419Y-12654769D02*
X17969181Y-12673817D01*
X18140609Y-12730960D02*
X18159657Y-12740484D01*
X18159657Y-12740484D02*
X18197752Y-12740484D01*
X18197752Y-12740484D02*
X18216800Y-12730960D01*
X18216800Y-12730960D02*
X18226324Y-12711912D01*
X18226324Y-12711912D02*
X18226324Y-12702388D01*
X18226324Y-12702388D02*
X18216800Y-12683341D01*
X18216800Y-12683341D02*
X18197752Y-12673817D01*
X18197752Y-12673817D02*
X18169181Y-12673817D01*
X18169181Y-12673817D02*
X18150133Y-12664293D01*
X18150133Y-12664293D02*
X18140609Y-12645246D01*
X18140609Y-12645246D02*
X18140609Y-12635722D01*
X18140609Y-12635722D02*
X18150133Y-12616674D01*
X18150133Y-12616674D02*
X18169181Y-12607150D01*
X18169181Y-12607150D02*
X18197752Y-12607150D01*
X18197752Y-12607150D02*
X18216800Y-12616674D01*
X18292990Y-12816674D02*
X18302514Y-12807150D01*
X18302514Y-12807150D02*
X18321562Y-12778579D01*
X18321562Y-12778579D02*
X18331086Y-12759531D01*
X18331086Y-12759531D02*
X18340609Y-12730960D01*
X18340609Y-12730960D02*
X18350133Y-12683341D01*
X18350133Y-12683341D02*
X18350133Y-12645246D01*
X18350133Y-12645246D02*
X18340609Y-12597627D01*
X18340609Y-12597627D02*
X18331086Y-12569055D01*
X18331086Y-12569055D02*
X18321562Y-12550008D01*
X18321562Y-12550008D02*
X18302514Y-12521436D01*
X18302514Y-12521436D02*
X18292990Y-12511912D01*
M02*
