%TF.GenerationSoftware,KiCad,Pcbnew,8.0.1*%
%TF.CreationDate,2024-05-13T16:53:06-04:00*%
%TF.ProjectId,LM1085,4c4d3130-3835-42e6-9b69-6361645f7063,rev?*%
%TF.SameCoordinates,Original*%
%TF.FileFunction,Legend,Bot*%
%TF.FilePolarity,Positive*%
%FSLAX46Y46*%
G04 Gerber Fmt 4.6, Leading zero omitted, Abs format (unit mm)*
G04 Created by KiCad (PCBNEW 8.0.1) date 2024-05-13 16:53:06*
%MOMM*%
%LPD*%
G01*
G04 APERTURE LIST*
%ADD10C,0.150000*%
%ADD11C,0.120000*%
G04 APERTURE END LIST*
D10*
X139700000Y-95885000D02*
X161925000Y-95885000D01*
X161925000Y-113030000D01*
X139700000Y-113030000D01*
X139700000Y-95885000D01*
X155873220Y-104644819D02*
X155873220Y-103644819D01*
X155873220Y-104121009D02*
X155301792Y-104121009D01*
X155301792Y-104644819D02*
X155301792Y-103644819D01*
X154444649Y-104597200D02*
X154539887Y-104644819D01*
X154539887Y-104644819D02*
X154730363Y-104644819D01*
X154730363Y-104644819D02*
X154825601Y-104597200D01*
X154825601Y-104597200D02*
X154873220Y-104501961D01*
X154873220Y-104501961D02*
X154873220Y-104121009D01*
X154873220Y-104121009D02*
X154825601Y-104025771D01*
X154825601Y-104025771D02*
X154730363Y-103978152D01*
X154730363Y-103978152D02*
X154539887Y-103978152D01*
X154539887Y-103978152D02*
X154444649Y-104025771D01*
X154444649Y-104025771D02*
X154397030Y-104121009D01*
X154397030Y-104121009D02*
X154397030Y-104216247D01*
X154397030Y-104216247D02*
X154873220Y-104311485D01*
X153539887Y-104644819D02*
X153539887Y-104121009D01*
X153539887Y-104121009D02*
X153587506Y-104025771D01*
X153587506Y-104025771D02*
X153682744Y-103978152D01*
X153682744Y-103978152D02*
X153873220Y-103978152D01*
X153873220Y-103978152D02*
X153968458Y-104025771D01*
X153539887Y-104597200D02*
X153635125Y-104644819D01*
X153635125Y-104644819D02*
X153873220Y-104644819D01*
X153873220Y-104644819D02*
X153968458Y-104597200D01*
X153968458Y-104597200D02*
X154016077Y-104501961D01*
X154016077Y-104501961D02*
X154016077Y-104406723D01*
X154016077Y-104406723D02*
X153968458Y-104311485D01*
X153968458Y-104311485D02*
X153873220Y-104263866D01*
X153873220Y-104263866D02*
X153635125Y-104263866D01*
X153635125Y-104263866D02*
X153539887Y-104216247D01*
X153206553Y-103978152D02*
X152825601Y-103978152D01*
X153063696Y-103644819D02*
X153063696Y-104501961D01*
X153063696Y-104501961D02*
X153016077Y-104597200D01*
X153016077Y-104597200D02*
X152920839Y-104644819D01*
X152920839Y-104644819D02*
X152825601Y-104644819D01*
X151777981Y-104597200D02*
X151635124Y-104644819D01*
X151635124Y-104644819D02*
X151397029Y-104644819D01*
X151397029Y-104644819D02*
X151301791Y-104597200D01*
X151301791Y-104597200D02*
X151254172Y-104549580D01*
X151254172Y-104549580D02*
X151206553Y-104454342D01*
X151206553Y-104454342D02*
X151206553Y-104359104D01*
X151206553Y-104359104D02*
X151254172Y-104263866D01*
X151254172Y-104263866D02*
X151301791Y-104216247D01*
X151301791Y-104216247D02*
X151397029Y-104168628D01*
X151397029Y-104168628D02*
X151587505Y-104121009D01*
X151587505Y-104121009D02*
X151682743Y-104073390D01*
X151682743Y-104073390D02*
X151730362Y-104025771D01*
X151730362Y-104025771D02*
X151777981Y-103930533D01*
X151777981Y-103930533D02*
X151777981Y-103835295D01*
X151777981Y-103835295D02*
X151730362Y-103740057D01*
X151730362Y-103740057D02*
X151682743Y-103692438D01*
X151682743Y-103692438D02*
X151587505Y-103644819D01*
X151587505Y-103644819D02*
X151349410Y-103644819D01*
X151349410Y-103644819D02*
X151206553Y-103692438D01*
X150777981Y-104644819D02*
X150777981Y-103978152D01*
X150777981Y-103644819D02*
X150825600Y-103692438D01*
X150825600Y-103692438D02*
X150777981Y-103740057D01*
X150777981Y-103740057D02*
X150730362Y-103692438D01*
X150730362Y-103692438D02*
X150777981Y-103644819D01*
X150777981Y-103644819D02*
X150777981Y-103740057D01*
X150301791Y-103978152D02*
X150301791Y-104644819D01*
X150301791Y-104073390D02*
X150254172Y-104025771D01*
X150254172Y-104025771D02*
X150158934Y-103978152D01*
X150158934Y-103978152D02*
X150016077Y-103978152D01*
X150016077Y-103978152D02*
X149920839Y-104025771D01*
X149920839Y-104025771D02*
X149873220Y-104121009D01*
X149873220Y-104121009D02*
X149873220Y-104644819D01*
X149397029Y-104644819D02*
X149397029Y-103644819D01*
X149301791Y-104263866D02*
X149016077Y-104644819D01*
X149016077Y-103978152D02*
X149397029Y-104359104D01*
X147873219Y-104359104D02*
X147397029Y-104359104D01*
X147968457Y-104644819D02*
X147635124Y-103644819D01*
X147635124Y-103644819D02*
X147301791Y-104644819D01*
X146968457Y-104644819D02*
X146968457Y-103978152D01*
X146968457Y-104168628D02*
X146920838Y-104073390D01*
X146920838Y-104073390D02*
X146873219Y-104025771D01*
X146873219Y-104025771D02*
X146777981Y-103978152D01*
X146777981Y-103978152D02*
X146682743Y-103978152D01*
X145968457Y-104597200D02*
X146063695Y-104644819D01*
X146063695Y-104644819D02*
X146254171Y-104644819D01*
X146254171Y-104644819D02*
X146349409Y-104597200D01*
X146349409Y-104597200D02*
X146397028Y-104501961D01*
X146397028Y-104501961D02*
X146397028Y-104121009D01*
X146397028Y-104121009D02*
X146349409Y-104025771D01*
X146349409Y-104025771D02*
X146254171Y-103978152D01*
X146254171Y-103978152D02*
X146063695Y-103978152D01*
X146063695Y-103978152D02*
X145968457Y-104025771D01*
X145968457Y-104025771D02*
X145920838Y-104121009D01*
X145920838Y-104121009D02*
X145920838Y-104216247D01*
X145920838Y-104216247D02*
X146397028Y-104311485D01*
X145063695Y-104644819D02*
X145063695Y-104121009D01*
X145063695Y-104121009D02*
X145111314Y-104025771D01*
X145111314Y-104025771D02*
X145206552Y-103978152D01*
X145206552Y-103978152D02*
X145397028Y-103978152D01*
X145397028Y-103978152D02*
X145492266Y-104025771D01*
X145063695Y-104597200D02*
X145158933Y-104644819D01*
X145158933Y-104644819D02*
X145397028Y-104644819D01*
X145397028Y-104644819D02*
X145492266Y-104597200D01*
X145492266Y-104597200D02*
X145539885Y-104501961D01*
X145539885Y-104501961D02*
X145539885Y-104406723D01*
X145539885Y-104406723D02*
X145492266Y-104311485D01*
X145492266Y-104311485D02*
X145397028Y-104263866D01*
X145397028Y-104263866D02*
X145158933Y-104263866D01*
X145158933Y-104263866D02*
X145063695Y-104216247D01*
X138779819Y-99124047D02*
X137779819Y-99124047D01*
X138256009Y-99124047D02*
X138256009Y-99695475D01*
X138779819Y-99695475D02*
X137779819Y-99695475D01*
X138732200Y-100124047D02*
X138779819Y-100266904D01*
X138779819Y-100266904D02*
X138779819Y-100504999D01*
X138779819Y-100504999D02*
X138732200Y-100600237D01*
X138732200Y-100600237D02*
X138684580Y-100647856D01*
X138684580Y-100647856D02*
X138589342Y-100695475D01*
X138589342Y-100695475D02*
X138494104Y-100695475D01*
X138494104Y-100695475D02*
X138398866Y-100647856D01*
X138398866Y-100647856D02*
X138351247Y-100600237D01*
X138351247Y-100600237D02*
X138303628Y-100504999D01*
X138303628Y-100504999D02*
X138256009Y-100314523D01*
X138256009Y-100314523D02*
X138208390Y-100219285D01*
X138208390Y-100219285D02*
X138160771Y-100171666D01*
X138160771Y-100171666D02*
X138065533Y-100124047D01*
X138065533Y-100124047D02*
X137970295Y-100124047D01*
X137970295Y-100124047D02*
X137875057Y-100171666D01*
X137875057Y-100171666D02*
X137827438Y-100219285D01*
X137827438Y-100219285D02*
X137779819Y-100314523D01*
X137779819Y-100314523D02*
X137779819Y-100552618D01*
X137779819Y-100552618D02*
X137827438Y-100695475D01*
X138494104Y-101076428D02*
X138494104Y-101552618D01*
X138779819Y-100981190D02*
X137779819Y-101314523D01*
X137779819Y-101314523D02*
X138779819Y-101647856D01*
X138113152Y-101981190D02*
X138779819Y-101981190D01*
X138208390Y-101981190D02*
X138160771Y-102028809D01*
X138160771Y-102028809D02*
X138113152Y-102124047D01*
X138113152Y-102124047D02*
X138113152Y-102266904D01*
X138113152Y-102266904D02*
X138160771Y-102362142D01*
X138160771Y-102362142D02*
X138256009Y-102409761D01*
X138256009Y-102409761D02*
X138779819Y-102409761D01*
X138732200Y-103314523D02*
X138779819Y-103219285D01*
X138779819Y-103219285D02*
X138779819Y-103028809D01*
X138779819Y-103028809D02*
X138732200Y-102933571D01*
X138732200Y-102933571D02*
X138684580Y-102885952D01*
X138684580Y-102885952D02*
X138589342Y-102838333D01*
X138589342Y-102838333D02*
X138303628Y-102838333D01*
X138303628Y-102838333D02*
X138208390Y-102885952D01*
X138208390Y-102885952D02*
X138160771Y-102933571D01*
X138160771Y-102933571D02*
X138113152Y-103028809D01*
X138113152Y-103028809D02*
X138113152Y-103219285D01*
X138113152Y-103219285D02*
X138160771Y-103314523D01*
X138779819Y-103743095D02*
X137779819Y-103743095D01*
X138779819Y-104171666D02*
X138256009Y-104171666D01*
X138256009Y-104171666D02*
X138160771Y-104124047D01*
X138160771Y-104124047D02*
X138113152Y-104028809D01*
X138113152Y-104028809D02*
X138113152Y-103885952D01*
X138113152Y-103885952D02*
X138160771Y-103790714D01*
X138160771Y-103790714D02*
X138208390Y-103743095D01*
X138779819Y-104790714D02*
X138732200Y-104695476D01*
X138732200Y-104695476D02*
X138684580Y-104647857D01*
X138684580Y-104647857D02*
X138589342Y-104600238D01*
X138589342Y-104600238D02*
X138303628Y-104600238D01*
X138303628Y-104600238D02*
X138208390Y-104647857D01*
X138208390Y-104647857D02*
X138160771Y-104695476D01*
X138160771Y-104695476D02*
X138113152Y-104790714D01*
X138113152Y-104790714D02*
X138113152Y-104933571D01*
X138113152Y-104933571D02*
X138160771Y-105028809D01*
X138160771Y-105028809D02*
X138208390Y-105076428D01*
X138208390Y-105076428D02*
X138303628Y-105124047D01*
X138303628Y-105124047D02*
X138589342Y-105124047D01*
X138589342Y-105124047D02*
X138684580Y-105076428D01*
X138684580Y-105076428D02*
X138732200Y-105028809D01*
X138732200Y-105028809D02*
X138779819Y-104933571D01*
X138779819Y-104933571D02*
X138779819Y-104790714D01*
X138779819Y-105552619D02*
X138113152Y-105552619D01*
X138303628Y-105552619D02*
X138208390Y-105600238D01*
X138208390Y-105600238D02*
X138160771Y-105647857D01*
X138160771Y-105647857D02*
X138113152Y-105743095D01*
X138113152Y-105743095D02*
X138113152Y-105838333D01*
X138398866Y-106171667D02*
X138398866Y-106933572D01*
X137875057Y-107362143D02*
X137827438Y-107409762D01*
X137827438Y-107409762D02*
X137779819Y-107505000D01*
X137779819Y-107505000D02*
X137779819Y-107743095D01*
X137779819Y-107743095D02*
X137827438Y-107838333D01*
X137827438Y-107838333D02*
X137875057Y-107885952D01*
X137875057Y-107885952D02*
X137970295Y-107933571D01*
X137970295Y-107933571D02*
X138065533Y-107933571D01*
X138065533Y-107933571D02*
X138208390Y-107885952D01*
X138208390Y-107885952D02*
X138779819Y-107314524D01*
X138779819Y-107314524D02*
X138779819Y-107933571D01*
X163754819Y-99124047D02*
X162754819Y-99124047D01*
X163231009Y-99124047D02*
X163231009Y-99695475D01*
X163754819Y-99695475D02*
X162754819Y-99695475D01*
X163707200Y-100124047D02*
X163754819Y-100266904D01*
X163754819Y-100266904D02*
X163754819Y-100504999D01*
X163754819Y-100504999D02*
X163707200Y-100600237D01*
X163707200Y-100600237D02*
X163659580Y-100647856D01*
X163659580Y-100647856D02*
X163564342Y-100695475D01*
X163564342Y-100695475D02*
X163469104Y-100695475D01*
X163469104Y-100695475D02*
X163373866Y-100647856D01*
X163373866Y-100647856D02*
X163326247Y-100600237D01*
X163326247Y-100600237D02*
X163278628Y-100504999D01*
X163278628Y-100504999D02*
X163231009Y-100314523D01*
X163231009Y-100314523D02*
X163183390Y-100219285D01*
X163183390Y-100219285D02*
X163135771Y-100171666D01*
X163135771Y-100171666D02*
X163040533Y-100124047D01*
X163040533Y-100124047D02*
X162945295Y-100124047D01*
X162945295Y-100124047D02*
X162850057Y-100171666D01*
X162850057Y-100171666D02*
X162802438Y-100219285D01*
X162802438Y-100219285D02*
X162754819Y-100314523D01*
X162754819Y-100314523D02*
X162754819Y-100552618D01*
X162754819Y-100552618D02*
X162802438Y-100695475D01*
X163469104Y-101076428D02*
X163469104Y-101552618D01*
X163754819Y-100981190D02*
X162754819Y-101314523D01*
X162754819Y-101314523D02*
X163754819Y-101647856D01*
X163088152Y-101981190D02*
X163754819Y-101981190D01*
X163183390Y-101981190D02*
X163135771Y-102028809D01*
X163135771Y-102028809D02*
X163088152Y-102124047D01*
X163088152Y-102124047D02*
X163088152Y-102266904D01*
X163088152Y-102266904D02*
X163135771Y-102362142D01*
X163135771Y-102362142D02*
X163231009Y-102409761D01*
X163231009Y-102409761D02*
X163754819Y-102409761D01*
X163707200Y-103314523D02*
X163754819Y-103219285D01*
X163754819Y-103219285D02*
X163754819Y-103028809D01*
X163754819Y-103028809D02*
X163707200Y-102933571D01*
X163707200Y-102933571D02*
X163659580Y-102885952D01*
X163659580Y-102885952D02*
X163564342Y-102838333D01*
X163564342Y-102838333D02*
X163278628Y-102838333D01*
X163278628Y-102838333D02*
X163183390Y-102885952D01*
X163183390Y-102885952D02*
X163135771Y-102933571D01*
X163135771Y-102933571D02*
X163088152Y-103028809D01*
X163088152Y-103028809D02*
X163088152Y-103219285D01*
X163088152Y-103219285D02*
X163135771Y-103314523D01*
X163754819Y-103743095D02*
X162754819Y-103743095D01*
X163754819Y-104171666D02*
X163231009Y-104171666D01*
X163231009Y-104171666D02*
X163135771Y-104124047D01*
X163135771Y-104124047D02*
X163088152Y-104028809D01*
X163088152Y-104028809D02*
X163088152Y-103885952D01*
X163088152Y-103885952D02*
X163135771Y-103790714D01*
X163135771Y-103790714D02*
X163183390Y-103743095D01*
X163754819Y-104790714D02*
X163707200Y-104695476D01*
X163707200Y-104695476D02*
X163659580Y-104647857D01*
X163659580Y-104647857D02*
X163564342Y-104600238D01*
X163564342Y-104600238D02*
X163278628Y-104600238D01*
X163278628Y-104600238D02*
X163183390Y-104647857D01*
X163183390Y-104647857D02*
X163135771Y-104695476D01*
X163135771Y-104695476D02*
X163088152Y-104790714D01*
X163088152Y-104790714D02*
X163088152Y-104933571D01*
X163088152Y-104933571D02*
X163135771Y-105028809D01*
X163135771Y-105028809D02*
X163183390Y-105076428D01*
X163183390Y-105076428D02*
X163278628Y-105124047D01*
X163278628Y-105124047D02*
X163564342Y-105124047D01*
X163564342Y-105124047D02*
X163659580Y-105076428D01*
X163659580Y-105076428D02*
X163707200Y-105028809D01*
X163707200Y-105028809D02*
X163754819Y-104933571D01*
X163754819Y-104933571D02*
X163754819Y-104790714D01*
X163754819Y-105552619D02*
X163088152Y-105552619D01*
X163278628Y-105552619D02*
X163183390Y-105600238D01*
X163183390Y-105600238D02*
X163135771Y-105647857D01*
X163135771Y-105647857D02*
X163088152Y-105743095D01*
X163088152Y-105743095D02*
X163088152Y-105838333D01*
X163373866Y-106171667D02*
X163373866Y-106933572D01*
X163754819Y-107933571D02*
X163754819Y-107362143D01*
X163754819Y-107647857D02*
X162754819Y-107647857D01*
X162754819Y-107647857D02*
X162897676Y-107552619D01*
X162897676Y-107552619D02*
X162992914Y-107457381D01*
X162992914Y-107457381D02*
X163040533Y-107362143D01*
D11*
%TO.C,HSAnchor-2*%
X136225000Y-102105000D02*
X136825000Y-102105000D01*
X137525000Y-102805000D02*
X137525000Y-104205000D01*
X135525000Y-104205000D02*
X135525000Y-102805000D01*
X136825000Y-104905000D02*
X136225000Y-104905000D01*
X136825000Y-102105000D02*
G75*
G02*
X137525000Y-102805000I0J-700000D01*
G01*
X135525000Y-102805000D02*
G75*
G02*
X136225000Y-102105000I700000J0D01*
G01*
X137525000Y-104205000D02*
G75*
G02*
X136825000Y-104905000I-699999J-1D01*
G01*
X136225000Y-104905000D02*
G75*
G02*
X135525000Y-104205000I-1J699999D01*
G01*
%TO.C,HSAnchor-1*%
X164800000Y-102105000D02*
X165400000Y-102105000D01*
X164100000Y-104205000D02*
X164100000Y-102805000D01*
X166100000Y-102805000D02*
X166100000Y-104205000D01*
X165400000Y-104905000D02*
X164800000Y-104905000D01*
X164100000Y-102805000D02*
G75*
G02*
X164800000Y-102105000I699999J1D01*
G01*
X165400000Y-102105000D02*
G75*
G02*
X166100000Y-102805000I1J-699999D01*
G01*
X164800000Y-104905000D02*
G75*
G02*
X164100000Y-104205000I0J700000D01*
G01*
X166100000Y-104205000D02*
G75*
G02*
X165400000Y-104905000I-700000J0D01*
G01*
%TD*%
M02*
