%TF.GenerationSoftware,KiCad,Pcbnew,8.0.1*%
%TF.CreationDate,2024-05-13T16:53:03-04:00*%
%TF.ProjectId,LM1085,4c4d3130-3835-42e6-9b69-6361645f7063,rev?*%
%TF.SameCoordinates,Original*%
%TF.FileFunction,Drillmap*%
%TF.FilePolarity,Positive*%
%FSLAX45Y45*%
G04 Gerber Fmt 4.5, Leading zero omitted, Abs format (unit mm)*
G04 Created by KiCad (PCBNEW 8.0.1) date 2024-05-13 16:53:03*
%MOMM*%
%LPD*%
G01*
G04 APERTURE LIST*
%ADD10C,0.150000*%
%ADD11C,0.200000*%
G04 APERTURE END LIST*
D10*
X13335049Y-12001500D02*
X13334951Y-9398000D01*
X16890951Y-9398000D02*
X16890976Y-12001500D01*
X16890976Y-12001500D02*
X13335049Y-12001500D01*
X13334951Y-9398000D02*
X16890951Y-9398000D01*
D11*
X13588228Y-12320484D02*
X13588228Y-12120484D01*
X13588228Y-12120484D02*
X13635847Y-12120484D01*
X13635847Y-12120484D02*
X13664418Y-12130008D01*
X13664418Y-12130008D02*
X13683466Y-12149055D01*
X13683466Y-12149055D02*
X13692990Y-12168103D01*
X13692990Y-12168103D02*
X13702514Y-12206198D01*
X13702514Y-12206198D02*
X13702514Y-12234769D01*
X13702514Y-12234769D02*
X13692990Y-12272865D01*
X13692990Y-12272865D02*
X13683466Y-12291912D01*
X13683466Y-12291912D02*
X13664418Y-12310960D01*
X13664418Y-12310960D02*
X13635847Y-12320484D01*
X13635847Y-12320484D02*
X13588228Y-12320484D01*
X13788228Y-12320484D02*
X13788228Y-12187150D01*
X13788228Y-12225246D02*
X13797752Y-12206198D01*
X13797752Y-12206198D02*
X13807275Y-12196674D01*
X13807275Y-12196674D02*
X13826323Y-12187150D01*
X13826323Y-12187150D02*
X13845371Y-12187150D01*
X13912037Y-12320484D02*
X13912037Y-12187150D01*
X13912037Y-12120484D02*
X13902514Y-12130008D01*
X13902514Y-12130008D02*
X13912037Y-12139531D01*
X13912037Y-12139531D02*
X13921561Y-12130008D01*
X13921561Y-12130008D02*
X13912037Y-12120484D01*
X13912037Y-12120484D02*
X13912037Y-12139531D01*
X14035847Y-12320484D02*
X14016799Y-12310960D01*
X14016799Y-12310960D02*
X14007275Y-12291912D01*
X14007275Y-12291912D02*
X14007275Y-12120484D01*
X14140609Y-12320484D02*
X14121561Y-12310960D01*
X14121561Y-12310960D02*
X14112037Y-12291912D01*
X14112037Y-12291912D02*
X14112037Y-12120484D01*
X14369180Y-12320484D02*
X14369180Y-12120484D01*
X14369180Y-12120484D02*
X14435847Y-12263341D01*
X14435847Y-12263341D02*
X14502514Y-12120484D01*
X14502514Y-12120484D02*
X14502514Y-12320484D01*
X14683466Y-12320484D02*
X14683466Y-12215722D01*
X14683466Y-12215722D02*
X14673942Y-12196674D01*
X14673942Y-12196674D02*
X14654895Y-12187150D01*
X14654895Y-12187150D02*
X14616799Y-12187150D01*
X14616799Y-12187150D02*
X14597752Y-12196674D01*
X14683466Y-12310960D02*
X14664418Y-12320484D01*
X14664418Y-12320484D02*
X14616799Y-12320484D01*
X14616799Y-12320484D02*
X14597752Y-12310960D01*
X14597752Y-12310960D02*
X14588228Y-12291912D01*
X14588228Y-12291912D02*
X14588228Y-12272865D01*
X14588228Y-12272865D02*
X14597752Y-12253817D01*
X14597752Y-12253817D02*
X14616799Y-12244293D01*
X14616799Y-12244293D02*
X14664418Y-12244293D01*
X14664418Y-12244293D02*
X14683466Y-12234769D01*
X14778704Y-12187150D02*
X14778704Y-12387150D01*
X14778704Y-12196674D02*
X14797752Y-12187150D01*
X14797752Y-12187150D02*
X14835847Y-12187150D01*
X14835847Y-12187150D02*
X14854895Y-12196674D01*
X14854895Y-12196674D02*
X14864418Y-12206198D01*
X14864418Y-12206198D02*
X14873942Y-12225246D01*
X14873942Y-12225246D02*
X14873942Y-12282388D01*
X14873942Y-12282388D02*
X14864418Y-12301436D01*
X14864418Y-12301436D02*
X14854895Y-12310960D01*
X14854895Y-12310960D02*
X14835847Y-12320484D01*
X14835847Y-12320484D02*
X14797752Y-12320484D01*
X14797752Y-12320484D02*
X14778704Y-12310960D01*
X14959656Y-12301436D02*
X14969180Y-12310960D01*
X14969180Y-12310960D02*
X14959656Y-12320484D01*
X14959656Y-12320484D02*
X14950133Y-12310960D01*
X14950133Y-12310960D02*
X14959656Y-12301436D01*
X14959656Y-12301436D02*
X14959656Y-12320484D01*
X14959656Y-12196674D02*
X14969180Y-12206198D01*
X14969180Y-12206198D02*
X14959656Y-12215722D01*
X14959656Y-12215722D02*
X14950133Y-12206198D01*
X14950133Y-12206198D02*
X14959656Y-12196674D01*
X14959656Y-12196674D02*
X14959656Y-12215722D01*
M02*
