%TF.GenerationSoftware,KiCad,Pcbnew,8.0.1*%
%TF.CreationDate,2024-05-13T16:53:06-04:00*%
%TF.ProjectId,LM1085,4c4d3130-3835-42e6-9b69-6361645f7063,rev?*%
%TF.SameCoordinates,Original*%
%TF.FileFunction,Copper,L2,Bot*%
%TF.FilePolarity,Positive*%
%FSLAX46Y46*%
G04 Gerber Fmt 4.6, Leading zero omitted, Abs format (unit mm)*
G04 Created by KiCad (PCBNEW 8.0.1) date 2024-05-13 16:53:06*
%MOMM*%
%LPD*%
G01*
G04 APERTURE LIST*
G04 Aperture macros list*
%AMFreePoly0*
4,1,19,0.500000,-0.750000,0.000000,-0.750000,0.000000,-0.744911,-0.071157,-0.744911,-0.207708,-0.704816,-0.327430,-0.627875,-0.420627,-0.520320,-0.479746,-0.390866,-0.500000,-0.250000,-0.500000,0.250000,-0.479746,0.390866,-0.420627,0.520320,-0.327430,0.627875,-0.207708,0.704816,-0.071157,0.744911,0.000000,0.744911,0.000000,0.750000,0.500000,0.750000,0.500000,-0.750000,0.500000,-0.750000,
$1*%
%AMFreePoly1*
4,1,19,0.000000,0.744911,0.071157,0.744911,0.207708,0.704816,0.327430,0.627875,0.420627,0.520320,0.479746,0.390866,0.500000,0.250000,0.500000,-0.250000,0.479746,-0.390866,0.420627,-0.520320,0.327430,-0.627875,0.207708,-0.704816,0.071157,-0.744911,0.000000,-0.744911,0.000000,-0.750000,-0.500000,-0.750000,-0.500000,0.750000,0.000000,0.750000,0.000000,0.744911,0.000000,0.744911,
$1*%
G04 Aperture macros list end*
%TA.AperFunction,EtchedComponent*%
%ADD10C,0.000000*%
%TD*%
%TA.AperFunction,SMDPad,CuDef*%
%ADD11FreePoly0,90.000000*%
%TD*%
%TA.AperFunction,SMDPad,CuDef*%
%ADD12FreePoly1,90.000000*%
%TD*%
%TA.AperFunction,SMDPad,CuDef*%
%ADD13FreePoly0,270.000000*%
%TD*%
%TA.AperFunction,SMDPad,CuDef*%
%ADD14FreePoly1,270.000000*%
%TD*%
%TA.AperFunction,ViaPad*%
%ADD15C,0.600000*%
%TD*%
%TA.AperFunction,Conductor*%
%ADD16C,1.000000*%
%TD*%
G04 APERTURE END LIST*
D10*
%TA.AperFunction,EtchedComponent*%
%TO.C,HSAnchor-2*%
G36*
X137125000Y-103755000D02*
G01*
X136725000Y-103755000D01*
X136725000Y-103255000D01*
X137125000Y-103255000D01*
X137125000Y-103755000D01*
G37*
%TD.AperFunction*%
%TA.AperFunction,EtchedComponent*%
G36*
X136325000Y-103755000D02*
G01*
X135925000Y-103755000D01*
X135925000Y-103255000D01*
X136325000Y-103255000D01*
X136325000Y-103755000D01*
G37*
%TD.AperFunction*%
%TA.AperFunction,EtchedComponent*%
%TO.C,HSAnchor-1*%
G36*
X164900000Y-103755000D02*
G01*
X164500000Y-103755000D01*
X164500000Y-103255000D01*
X164900000Y-103255000D01*
X164900000Y-103755000D01*
G37*
%TD.AperFunction*%
%TA.AperFunction,EtchedComponent*%
G36*
X165700000Y-103755000D02*
G01*
X165300000Y-103755000D01*
X165300000Y-103255000D01*
X165700000Y-103255000D01*
X165700000Y-103755000D01*
G37*
%TD.AperFunction*%
%TD*%
D11*
%TO.P,HSAnchor-2,1*%
%TO.N,N/C*%
X136525000Y-104155000D03*
D12*
%TO.P,HSAnchor-2,2*%
X136525000Y-102855000D03*
%TD*%
D13*
%TO.P,HSAnchor-1,1*%
%TO.N,N/C*%
X165100000Y-102855000D03*
D14*
%TO.P,HSAnchor-1,2*%
X165100000Y-104155000D03*
%TD*%
D15*
%TO.N,+5V*%
X142240000Y-112000000D03*
X147320000Y-112000000D03*
X152400000Y-112000000D03*
X157480000Y-112000000D03*
%TO.N,+3.3V*%
X160000000Y-104800000D03*
X154940000Y-110800000D03*
X160000000Y-97750000D03*
X160000000Y-110800000D03*
X141397434Y-97750000D03*
X147320000Y-97750000D03*
X141397434Y-104140000D03*
X153209907Y-97750000D03*
%TD*%
D16*
%TO.N,+5V*%
X157480000Y-112000000D02*
X152400000Y-112000000D01*
X147320000Y-112000000D02*
X142240000Y-112000000D01*
X152400000Y-112000000D02*
X147320000Y-112000000D01*
%TO.N,+3.3V*%
X147320000Y-97750000D02*
X153179217Y-97750000D01*
X141397434Y-104140000D02*
X141397434Y-97748652D01*
X160000000Y-104688935D02*
X160000000Y-97779342D01*
X155040626Y-110800000D02*
X160000000Y-110800000D01*
%TD*%
%TA.AperFunction,Conductor*%
%TO.N,+3.3V*%
G36*
X161868039Y-95904685D02*
G01*
X161913794Y-95957489D01*
X161925000Y-96009000D01*
X161925000Y-110366000D01*
X161905315Y-110433039D01*
X161852511Y-110478794D01*
X161801000Y-110490000D01*
X139824000Y-110490000D01*
X139756961Y-110470315D01*
X139711206Y-110417511D01*
X139700000Y-110366000D01*
X139700000Y-96009000D01*
X139719685Y-95941961D01*
X139772489Y-95896206D01*
X139824000Y-95885000D01*
X161801000Y-95885000D01*
X161868039Y-95904685D01*
G37*
%TD.AperFunction*%
%TD*%
%TA.AperFunction,Conductor*%
%TO.N,+5V*%
G36*
X154067838Y-111144685D02*
G01*
X154113593Y-111197489D01*
X154115360Y-111201548D01*
X154146901Y-111277697D01*
X154146908Y-111277710D01*
X154257272Y-111442880D01*
X154257275Y-111442884D01*
X154397741Y-111583350D01*
X154397745Y-111583353D01*
X154562915Y-111693717D01*
X154562921Y-111693720D01*
X154562922Y-111693721D01*
X154746457Y-111769744D01*
X154941292Y-111808499D01*
X154941296Y-111808500D01*
X154941297Y-111808500D01*
X160099330Y-111808500D01*
X160099331Y-111808499D01*
X160294169Y-111769744D01*
X160477704Y-111693721D01*
X160642881Y-111583353D01*
X160783353Y-111442881D01*
X160893721Y-111277704D01*
X160925266Y-111201548D01*
X160969107Y-111147144D01*
X161035401Y-111125079D01*
X161039827Y-111125000D01*
X161801000Y-111125000D01*
X161868039Y-111144685D01*
X161913794Y-111197489D01*
X161925000Y-111249000D01*
X161925000Y-112906000D01*
X161905315Y-112973039D01*
X161852511Y-113018794D01*
X161801000Y-113030000D01*
X139824000Y-113030000D01*
X139756961Y-113010315D01*
X139711206Y-112957511D01*
X139700000Y-112906000D01*
X139700000Y-111249000D01*
X139719685Y-111181961D01*
X139772489Y-111136206D01*
X139824000Y-111125000D01*
X154000799Y-111125000D01*
X154067838Y-111144685D01*
G37*
%TD.AperFunction*%
%TD*%
M02*
