%TF.GenerationSoftware,KiCad,Pcbnew,8.0.1*%
%TF.CreationDate,2024-05-13T16:53:06-04:00*%
%TF.ProjectId,LM1085,4c4d3130-3835-42e6-9b69-6361645f7063,rev?*%
%TF.SameCoordinates,Original*%
%TF.FileFunction,Legend,Top*%
%TF.FilePolarity,Positive*%
%FSLAX46Y46*%
G04 Gerber Fmt 4.6, Leading zero omitted, Abs format (unit mm)*
G04 Created by KiCad (PCBNEW 8.0.1) date 2024-05-13 16:53:06*
%MOMM*%
%LPD*%
G01*
G04 APERTURE LIST*
%ADD10C,0.100000*%
%ADD11C,0.150000*%
%ADD12C,0.120000*%
G04 APERTURE END LIST*
D10*
X156173293Y-117993342D02*
X156173293Y-117612390D01*
X156478055Y-117802866D02*
X155868531Y-117802866D01*
X155678055Y-117421913D02*
X155678055Y-117112389D01*
X155678055Y-117112389D02*
X155982817Y-117279056D01*
X155982817Y-117279056D02*
X155982817Y-117207627D01*
X155982817Y-117207627D02*
X156020912Y-117160008D01*
X156020912Y-117160008D02*
X156059007Y-117136199D01*
X156059007Y-117136199D02*
X156135198Y-117112389D01*
X156135198Y-117112389D02*
X156325674Y-117112389D01*
X156325674Y-117112389D02*
X156401864Y-117136199D01*
X156401864Y-117136199D02*
X156439960Y-117160008D01*
X156439960Y-117160008D02*
X156478055Y-117207627D01*
X156478055Y-117207627D02*
X156478055Y-117350484D01*
X156478055Y-117350484D02*
X156439960Y-117398103D01*
X156439960Y-117398103D02*
X156401864Y-117421913D01*
X156401864Y-116898104D02*
X156439960Y-116874294D01*
X156439960Y-116874294D02*
X156478055Y-116898104D01*
X156478055Y-116898104D02*
X156439960Y-116921913D01*
X156439960Y-116921913D02*
X156401864Y-116898104D01*
X156401864Y-116898104D02*
X156478055Y-116898104D01*
X155678055Y-116707628D02*
X155678055Y-116398104D01*
X155678055Y-116398104D02*
X155982817Y-116564771D01*
X155982817Y-116564771D02*
X155982817Y-116493342D01*
X155982817Y-116493342D02*
X156020912Y-116445723D01*
X156020912Y-116445723D02*
X156059007Y-116421914D01*
X156059007Y-116421914D02*
X156135198Y-116398104D01*
X156135198Y-116398104D02*
X156325674Y-116398104D01*
X156325674Y-116398104D02*
X156401864Y-116421914D01*
X156401864Y-116421914D02*
X156439960Y-116445723D01*
X156439960Y-116445723D02*
X156478055Y-116493342D01*
X156478055Y-116493342D02*
X156478055Y-116636199D01*
X156478055Y-116636199D02*
X156439960Y-116683818D01*
X156439960Y-116683818D02*
X156401864Y-116707628D01*
X155678055Y-116255247D02*
X156478055Y-116088581D01*
X156478055Y-116088581D02*
X155678055Y-115921914D01*
X151039633Y-117925163D02*
X151039633Y-117544211D01*
X151344395Y-117734687D02*
X150734871Y-117734687D01*
X150544395Y-117353734D02*
X150544395Y-117044210D01*
X150544395Y-117044210D02*
X150849157Y-117210877D01*
X150849157Y-117210877D02*
X150849157Y-117139448D01*
X150849157Y-117139448D02*
X150887252Y-117091829D01*
X150887252Y-117091829D02*
X150925347Y-117068020D01*
X150925347Y-117068020D02*
X151001538Y-117044210D01*
X151001538Y-117044210D02*
X151192014Y-117044210D01*
X151192014Y-117044210D02*
X151268204Y-117068020D01*
X151268204Y-117068020D02*
X151306300Y-117091829D01*
X151306300Y-117091829D02*
X151344395Y-117139448D01*
X151344395Y-117139448D02*
X151344395Y-117282305D01*
X151344395Y-117282305D02*
X151306300Y-117329924D01*
X151306300Y-117329924D02*
X151268204Y-117353734D01*
X151268204Y-116829925D02*
X151306300Y-116806115D01*
X151306300Y-116806115D02*
X151344395Y-116829925D01*
X151344395Y-116829925D02*
X151306300Y-116853734D01*
X151306300Y-116853734D02*
X151268204Y-116829925D01*
X151268204Y-116829925D02*
X151344395Y-116829925D01*
X150544395Y-116639449D02*
X150544395Y-116329925D01*
X150544395Y-116329925D02*
X150849157Y-116496592D01*
X150849157Y-116496592D02*
X150849157Y-116425163D01*
X150849157Y-116425163D02*
X150887252Y-116377544D01*
X150887252Y-116377544D02*
X150925347Y-116353735D01*
X150925347Y-116353735D02*
X151001538Y-116329925D01*
X151001538Y-116329925D02*
X151192014Y-116329925D01*
X151192014Y-116329925D02*
X151268204Y-116353735D01*
X151268204Y-116353735D02*
X151306300Y-116377544D01*
X151306300Y-116377544D02*
X151344395Y-116425163D01*
X151344395Y-116425163D02*
X151344395Y-116568020D01*
X151344395Y-116568020D02*
X151306300Y-116615639D01*
X151306300Y-116615639D02*
X151268204Y-116639449D01*
X150544395Y-116187068D02*
X151344395Y-116020402D01*
X151344395Y-116020402D02*
X150544395Y-115853735D01*
X146002156Y-117993342D02*
X146002156Y-117612390D01*
X146306918Y-117802866D02*
X145697394Y-117802866D01*
X145506918Y-117421913D02*
X145506918Y-117112389D01*
X145506918Y-117112389D02*
X145811680Y-117279056D01*
X145811680Y-117279056D02*
X145811680Y-117207627D01*
X145811680Y-117207627D02*
X145849775Y-117160008D01*
X145849775Y-117160008D02*
X145887870Y-117136199D01*
X145887870Y-117136199D02*
X145964061Y-117112389D01*
X145964061Y-117112389D02*
X146154537Y-117112389D01*
X146154537Y-117112389D02*
X146230727Y-117136199D01*
X146230727Y-117136199D02*
X146268823Y-117160008D01*
X146268823Y-117160008D02*
X146306918Y-117207627D01*
X146306918Y-117207627D02*
X146306918Y-117350484D01*
X146306918Y-117350484D02*
X146268823Y-117398103D01*
X146268823Y-117398103D02*
X146230727Y-117421913D01*
X146230727Y-116898104D02*
X146268823Y-116874294D01*
X146268823Y-116874294D02*
X146306918Y-116898104D01*
X146306918Y-116898104D02*
X146268823Y-116921913D01*
X146268823Y-116921913D02*
X146230727Y-116898104D01*
X146230727Y-116898104D02*
X146306918Y-116898104D01*
X145506918Y-116707628D02*
X145506918Y-116398104D01*
X145506918Y-116398104D02*
X145811680Y-116564771D01*
X145811680Y-116564771D02*
X145811680Y-116493342D01*
X145811680Y-116493342D02*
X145849775Y-116445723D01*
X145849775Y-116445723D02*
X145887870Y-116421914D01*
X145887870Y-116421914D02*
X145964061Y-116398104D01*
X145964061Y-116398104D02*
X146154537Y-116398104D01*
X146154537Y-116398104D02*
X146230727Y-116421914D01*
X146230727Y-116421914D02*
X146268823Y-116445723D01*
X146268823Y-116445723D02*
X146306918Y-116493342D01*
X146306918Y-116493342D02*
X146306918Y-116636199D01*
X146306918Y-116636199D02*
X146268823Y-116683818D01*
X146268823Y-116683818D02*
X146230727Y-116707628D01*
X145506918Y-116255247D02*
X146306918Y-116088581D01*
X146306918Y-116088581D02*
X145506918Y-115921914D01*
X148551250Y-117968103D02*
X148551250Y-117587151D01*
X148856012Y-117777627D02*
X148246488Y-117777627D01*
X148056012Y-117110960D02*
X148056012Y-117349055D01*
X148056012Y-117349055D02*
X148436964Y-117372864D01*
X148436964Y-117372864D02*
X148398869Y-117349055D01*
X148398869Y-117349055D02*
X148360774Y-117301436D01*
X148360774Y-117301436D02*
X148360774Y-117182388D01*
X148360774Y-117182388D02*
X148398869Y-117134769D01*
X148398869Y-117134769D02*
X148436964Y-117110960D01*
X148436964Y-117110960D02*
X148513155Y-117087150D01*
X148513155Y-117087150D02*
X148703631Y-117087150D01*
X148703631Y-117087150D02*
X148779821Y-117110960D01*
X148779821Y-117110960D02*
X148817917Y-117134769D01*
X148817917Y-117134769D02*
X148856012Y-117182388D01*
X148856012Y-117182388D02*
X148856012Y-117301436D01*
X148856012Y-117301436D02*
X148817917Y-117349055D01*
X148817917Y-117349055D02*
X148779821Y-117372864D01*
X148056012Y-116944293D02*
X148856012Y-116777627D01*
X148856012Y-116777627D02*
X148056012Y-116610960D01*
X153699915Y-117968103D02*
X153699915Y-117587151D01*
X154004677Y-117777627D02*
X153395153Y-117777627D01*
X153204677Y-117110960D02*
X153204677Y-117349055D01*
X153204677Y-117349055D02*
X153585629Y-117372864D01*
X153585629Y-117372864D02*
X153547534Y-117349055D01*
X153547534Y-117349055D02*
X153509439Y-117301436D01*
X153509439Y-117301436D02*
X153509439Y-117182388D01*
X153509439Y-117182388D02*
X153547534Y-117134769D01*
X153547534Y-117134769D02*
X153585629Y-117110960D01*
X153585629Y-117110960D02*
X153661820Y-117087150D01*
X153661820Y-117087150D02*
X153852296Y-117087150D01*
X153852296Y-117087150D02*
X153928486Y-117110960D01*
X153928486Y-117110960D02*
X153966582Y-117134769D01*
X153966582Y-117134769D02*
X154004677Y-117182388D01*
X154004677Y-117182388D02*
X154004677Y-117301436D01*
X154004677Y-117301436D02*
X153966582Y-117349055D01*
X153966582Y-117349055D02*
X153928486Y-117372864D01*
X153204677Y-116944293D02*
X154004677Y-116777627D01*
X154004677Y-116777627D02*
X153204677Y-116610960D01*
X158798103Y-117993342D02*
X158798103Y-117612390D01*
X159102865Y-117802866D02*
X158493341Y-117802866D01*
X158302865Y-117136199D02*
X158302865Y-117374294D01*
X158302865Y-117374294D02*
X158683817Y-117398103D01*
X158683817Y-117398103D02*
X158645722Y-117374294D01*
X158645722Y-117374294D02*
X158607627Y-117326675D01*
X158607627Y-117326675D02*
X158607627Y-117207627D01*
X158607627Y-117207627D02*
X158645722Y-117160008D01*
X158645722Y-117160008D02*
X158683817Y-117136199D01*
X158683817Y-117136199D02*
X158760008Y-117112389D01*
X158760008Y-117112389D02*
X158950484Y-117112389D01*
X158950484Y-117112389D02*
X159026674Y-117136199D01*
X159026674Y-117136199D02*
X159064770Y-117160008D01*
X159064770Y-117160008D02*
X159102865Y-117207627D01*
X159102865Y-117207627D02*
X159102865Y-117326675D01*
X159102865Y-117326675D02*
X159064770Y-117374294D01*
X159064770Y-117374294D02*
X159026674Y-117398103D01*
X158302865Y-116969532D02*
X159102865Y-116802866D01*
X159102865Y-116802866D02*
X158302865Y-116636199D01*
X160713384Y-117706198D02*
X160675289Y-117753817D01*
X160675289Y-117753817D02*
X160675289Y-117825246D01*
X160675289Y-117825246D02*
X160713384Y-117896674D01*
X160713384Y-117896674D02*
X160789574Y-117944293D01*
X160789574Y-117944293D02*
X160865765Y-117968103D01*
X160865765Y-117968103D02*
X161018146Y-117991912D01*
X161018146Y-117991912D02*
X161132432Y-117991912D01*
X161132432Y-117991912D02*
X161284813Y-117968103D01*
X161284813Y-117968103D02*
X161361003Y-117944293D01*
X161361003Y-117944293D02*
X161437194Y-117896674D01*
X161437194Y-117896674D02*
X161475289Y-117825246D01*
X161475289Y-117825246D02*
X161475289Y-117777627D01*
X161475289Y-117777627D02*
X161437194Y-117706198D01*
X161437194Y-117706198D02*
X161399098Y-117682389D01*
X161399098Y-117682389D02*
X161132432Y-117682389D01*
X161132432Y-117682389D02*
X161132432Y-117777627D01*
X161475289Y-117468103D02*
X160675289Y-117468103D01*
X160675289Y-117468103D02*
X161475289Y-117182389D01*
X161475289Y-117182389D02*
X160675289Y-117182389D01*
X161475289Y-116944293D02*
X160675289Y-116944293D01*
X160675289Y-116944293D02*
X160675289Y-116825245D01*
X160675289Y-116825245D02*
X160713384Y-116753817D01*
X160713384Y-116753817D02*
X160789574Y-116706198D01*
X160789574Y-116706198D02*
X160865765Y-116682388D01*
X160865765Y-116682388D02*
X161018146Y-116658579D01*
X161018146Y-116658579D02*
X161132432Y-116658579D01*
X161132432Y-116658579D02*
X161284813Y-116682388D01*
X161284813Y-116682388D02*
X161361003Y-116706198D01*
X161361003Y-116706198D02*
X161437194Y-116753817D01*
X161437194Y-116753817D02*
X161475289Y-116825245D01*
X161475289Y-116825245D02*
X161475289Y-116944293D01*
X164125337Y-117968103D02*
X163325337Y-117968103D01*
X163325337Y-117968103D02*
X164125337Y-117682389D01*
X164125337Y-117682389D02*
X163325337Y-117682389D01*
X163287242Y-117087150D02*
X164315813Y-117515721D01*
X164049146Y-116634769D02*
X164087242Y-116658578D01*
X164087242Y-116658578D02*
X164125337Y-116730007D01*
X164125337Y-116730007D02*
X164125337Y-116777626D01*
X164125337Y-116777626D02*
X164087242Y-116849054D01*
X164087242Y-116849054D02*
X164011051Y-116896673D01*
X164011051Y-116896673D02*
X163934861Y-116920483D01*
X163934861Y-116920483D02*
X163782480Y-116944292D01*
X163782480Y-116944292D02*
X163668194Y-116944292D01*
X163668194Y-116944292D02*
X163515813Y-116920483D01*
X163515813Y-116920483D02*
X163439622Y-116896673D01*
X163439622Y-116896673D02*
X163363432Y-116849054D01*
X163363432Y-116849054D02*
X163325337Y-116777626D01*
X163325337Y-116777626D02*
X163325337Y-116730007D01*
X163325337Y-116730007D02*
X163363432Y-116658578D01*
X163363432Y-116658578D02*
X163401527Y-116634769D01*
X141259207Y-117968103D02*
X140459207Y-117968103D01*
X140459207Y-117968103D02*
X141259207Y-117682389D01*
X141259207Y-117682389D02*
X140459207Y-117682389D01*
X140421112Y-117087150D02*
X141449683Y-117515721D01*
X141183016Y-116634769D02*
X141221112Y-116658578D01*
X141221112Y-116658578D02*
X141259207Y-116730007D01*
X141259207Y-116730007D02*
X141259207Y-116777626D01*
X141259207Y-116777626D02*
X141221112Y-116849054D01*
X141221112Y-116849054D02*
X141144921Y-116896673D01*
X141144921Y-116896673D02*
X141068731Y-116920483D01*
X141068731Y-116920483D02*
X140916350Y-116944292D01*
X140916350Y-116944292D02*
X140802064Y-116944292D01*
X140802064Y-116944292D02*
X140649683Y-116920483D01*
X140649683Y-116920483D02*
X140573492Y-116896673D01*
X140573492Y-116896673D02*
X140497302Y-116849054D01*
X140497302Y-116849054D02*
X140459207Y-116777626D01*
X140459207Y-116777626D02*
X140459207Y-116730007D01*
X140459207Y-116730007D02*
X140497302Y-116658578D01*
X140497302Y-116658578D02*
X140535397Y-116634769D01*
D11*
X140694580Y-101766666D02*
X140742200Y-101814285D01*
X140742200Y-101814285D02*
X140789819Y-101957142D01*
X140789819Y-101957142D02*
X140789819Y-102052380D01*
X140789819Y-102052380D02*
X140742200Y-102195237D01*
X140742200Y-102195237D02*
X140646961Y-102290475D01*
X140646961Y-102290475D02*
X140551723Y-102338094D01*
X140551723Y-102338094D02*
X140361247Y-102385713D01*
X140361247Y-102385713D02*
X140218390Y-102385713D01*
X140218390Y-102385713D02*
X140027914Y-102338094D01*
X140027914Y-102338094D02*
X139932676Y-102290475D01*
X139932676Y-102290475D02*
X139837438Y-102195237D01*
X139837438Y-102195237D02*
X139789819Y-102052380D01*
X139789819Y-102052380D02*
X139789819Y-101957142D01*
X139789819Y-101957142D02*
X139837438Y-101814285D01*
X139837438Y-101814285D02*
X139885057Y-101766666D01*
X140789819Y-100814285D02*
X140789819Y-101385713D01*
X140789819Y-101099999D02*
X139789819Y-101099999D01*
X139789819Y-101099999D02*
X139932676Y-101195237D01*
X139932676Y-101195237D02*
X140027914Y-101290475D01*
X140027914Y-101290475D02*
X140075533Y-101385713D01*
X136274127Y-113313378D02*
X136226508Y-113360998D01*
X136226508Y-113360998D02*
X136083651Y-113408617D01*
X136083651Y-113408617D02*
X135988413Y-113408617D01*
X135988413Y-113408617D02*
X135845556Y-113360998D01*
X135845556Y-113360998D02*
X135750318Y-113265759D01*
X135750318Y-113265759D02*
X135702699Y-113170521D01*
X135702699Y-113170521D02*
X135655080Y-112980045D01*
X135655080Y-112980045D02*
X135655080Y-112837188D01*
X135655080Y-112837188D02*
X135702699Y-112646712D01*
X135702699Y-112646712D02*
X135750318Y-112551474D01*
X135750318Y-112551474D02*
X135845556Y-112456236D01*
X135845556Y-112456236D02*
X135988413Y-112408617D01*
X135988413Y-112408617D02*
X136083651Y-112408617D01*
X136083651Y-112408617D02*
X136226508Y-112456236D01*
X136226508Y-112456236D02*
X136274127Y-112503855D01*
X136655080Y-112503855D02*
X136702699Y-112456236D01*
X136702699Y-112456236D02*
X136797937Y-112408617D01*
X136797937Y-112408617D02*
X137036032Y-112408617D01*
X137036032Y-112408617D02*
X137131270Y-112456236D01*
X137131270Y-112456236D02*
X137178889Y-112503855D01*
X137178889Y-112503855D02*
X137226508Y-112599093D01*
X137226508Y-112599093D02*
X137226508Y-112694331D01*
X137226508Y-112694331D02*
X137178889Y-112837188D01*
X137178889Y-112837188D02*
X136607461Y-113408617D01*
X136607461Y-113408617D02*
X137226508Y-113408617D01*
X162359580Y-101766666D02*
X162407200Y-101814285D01*
X162407200Y-101814285D02*
X162454819Y-101957142D01*
X162454819Y-101957142D02*
X162454819Y-102052380D01*
X162454819Y-102052380D02*
X162407200Y-102195237D01*
X162407200Y-102195237D02*
X162311961Y-102290475D01*
X162311961Y-102290475D02*
X162216723Y-102338094D01*
X162216723Y-102338094D02*
X162026247Y-102385713D01*
X162026247Y-102385713D02*
X161883390Y-102385713D01*
X161883390Y-102385713D02*
X161692914Y-102338094D01*
X161692914Y-102338094D02*
X161597676Y-102290475D01*
X161597676Y-102290475D02*
X161502438Y-102195237D01*
X161502438Y-102195237D02*
X161454819Y-102052380D01*
X161454819Y-102052380D02*
X161454819Y-101957142D01*
X161454819Y-101957142D02*
X161502438Y-101814285D01*
X161502438Y-101814285D02*
X161550057Y-101766666D01*
X161454819Y-101433332D02*
X161454819Y-100814285D01*
X161454819Y-100814285D02*
X161835771Y-101147618D01*
X161835771Y-101147618D02*
X161835771Y-101004761D01*
X161835771Y-101004761D02*
X161883390Y-100909523D01*
X161883390Y-100909523D02*
X161931009Y-100861904D01*
X161931009Y-100861904D02*
X162026247Y-100814285D01*
X162026247Y-100814285D02*
X162264342Y-100814285D01*
X162264342Y-100814285D02*
X162359580Y-100861904D01*
X162359580Y-100861904D02*
X162407200Y-100909523D01*
X162407200Y-100909523D02*
X162454819Y-101004761D01*
X162454819Y-101004761D02*
X162454819Y-101290475D01*
X162454819Y-101290475D02*
X162407200Y-101385713D01*
X162407200Y-101385713D02*
X162359580Y-101433332D01*
X165475134Y-113262901D02*
X165427515Y-113310521D01*
X165427515Y-113310521D02*
X165284658Y-113358140D01*
X165284658Y-113358140D02*
X165189420Y-113358140D01*
X165189420Y-113358140D02*
X165046563Y-113310521D01*
X165046563Y-113310521D02*
X164951325Y-113215282D01*
X164951325Y-113215282D02*
X164903706Y-113120044D01*
X164903706Y-113120044D02*
X164856087Y-112929568D01*
X164856087Y-112929568D02*
X164856087Y-112786711D01*
X164856087Y-112786711D02*
X164903706Y-112596235D01*
X164903706Y-112596235D02*
X164951325Y-112500997D01*
X164951325Y-112500997D02*
X165046563Y-112405759D01*
X165046563Y-112405759D02*
X165189420Y-112358140D01*
X165189420Y-112358140D02*
X165284658Y-112358140D01*
X165284658Y-112358140D02*
X165427515Y-112405759D01*
X165427515Y-112405759D02*
X165475134Y-112453378D01*
X166332277Y-112691473D02*
X166332277Y-113358140D01*
X166094182Y-112310521D02*
X165856087Y-113024806D01*
X165856087Y-113024806D02*
X166475134Y-113024806D01*
D10*
X148622381Y-120742419D02*
X148955714Y-121742419D01*
X148955714Y-121742419D02*
X149289047Y-120742419D01*
X150193809Y-121742419D02*
X149860476Y-121266228D01*
X149622381Y-121742419D02*
X149622381Y-120742419D01*
X149622381Y-120742419D02*
X150003333Y-120742419D01*
X150003333Y-120742419D02*
X150098571Y-120790038D01*
X150098571Y-120790038D02*
X150146190Y-120837657D01*
X150146190Y-120837657D02*
X150193809Y-120932895D01*
X150193809Y-120932895D02*
X150193809Y-121075752D01*
X150193809Y-121075752D02*
X150146190Y-121170990D01*
X150146190Y-121170990D02*
X150098571Y-121218609D01*
X150098571Y-121218609D02*
X150003333Y-121266228D01*
X150003333Y-121266228D02*
X149622381Y-121266228D01*
X150622381Y-121742419D02*
X150622381Y-120742419D01*
X150622381Y-120742419D02*
X150955714Y-121456704D01*
X150955714Y-121456704D02*
X151289047Y-120742419D01*
X151289047Y-120742419D02*
X151289047Y-121742419D01*
X151765238Y-121218609D02*
X152098571Y-121218609D01*
X152241428Y-121742419D02*
X151765238Y-121742419D01*
X151765238Y-121742419D02*
X151765238Y-120742419D01*
X151765238Y-120742419D02*
X152241428Y-120742419D01*
X153098571Y-121742419D02*
X153098571Y-120742419D01*
X153098571Y-121694800D02*
X153003333Y-121742419D01*
X153003333Y-121742419D02*
X152812857Y-121742419D01*
X152812857Y-121742419D02*
X152717619Y-121694800D01*
X152717619Y-121694800D02*
X152670000Y-121647180D01*
X152670000Y-121647180D02*
X152622381Y-121551942D01*
X152622381Y-121551942D02*
X152622381Y-121266228D01*
X152622381Y-121266228D02*
X152670000Y-121170990D01*
X152670000Y-121170990D02*
X152717619Y-121123371D01*
X152717619Y-121123371D02*
X152812857Y-121075752D01*
X152812857Y-121075752D02*
X153003333Y-121075752D01*
X153003333Y-121075752D02*
X153098571Y-121123371D01*
X154003333Y-121075752D02*
X154003333Y-121885276D01*
X154003333Y-121885276D02*
X153955714Y-121980514D01*
X153955714Y-121980514D02*
X153908095Y-122028133D01*
X153908095Y-122028133D02*
X153812857Y-122075752D01*
X153812857Y-122075752D02*
X153670000Y-122075752D01*
X153670000Y-122075752D02*
X153574762Y-122028133D01*
X154003333Y-121694800D02*
X153908095Y-121742419D01*
X153908095Y-121742419D02*
X153717619Y-121742419D01*
X153717619Y-121742419D02*
X153622381Y-121694800D01*
X153622381Y-121694800D02*
X153574762Y-121647180D01*
X153574762Y-121647180D02*
X153527143Y-121551942D01*
X153527143Y-121551942D02*
X153527143Y-121266228D01*
X153527143Y-121266228D02*
X153574762Y-121170990D01*
X153574762Y-121170990D02*
X153622381Y-121123371D01*
X153622381Y-121123371D02*
X153717619Y-121075752D01*
X153717619Y-121075752D02*
X153908095Y-121075752D01*
X153908095Y-121075752D02*
X154003333Y-121123371D01*
X154860476Y-121694800D02*
X154765238Y-121742419D01*
X154765238Y-121742419D02*
X154574762Y-121742419D01*
X154574762Y-121742419D02*
X154479524Y-121694800D01*
X154479524Y-121694800D02*
X154431905Y-121599561D01*
X154431905Y-121599561D02*
X154431905Y-121218609D01*
X154431905Y-121218609D02*
X154479524Y-121123371D01*
X154479524Y-121123371D02*
X154574762Y-121075752D01*
X154574762Y-121075752D02*
X154765238Y-121075752D01*
X154765238Y-121075752D02*
X154860476Y-121123371D01*
X154860476Y-121123371D02*
X154908095Y-121218609D01*
X154908095Y-121218609D02*
X154908095Y-121313847D01*
X154908095Y-121313847D02*
X154431905Y-121409085D01*
X155908095Y-121647180D02*
X155860476Y-121694800D01*
X155860476Y-121694800D02*
X155717619Y-121742419D01*
X155717619Y-121742419D02*
X155622381Y-121742419D01*
X155622381Y-121742419D02*
X155479524Y-121694800D01*
X155479524Y-121694800D02*
X155384286Y-121599561D01*
X155384286Y-121599561D02*
X155336667Y-121504323D01*
X155336667Y-121504323D02*
X155289048Y-121313847D01*
X155289048Y-121313847D02*
X155289048Y-121170990D01*
X155289048Y-121170990D02*
X155336667Y-120980514D01*
X155336667Y-120980514D02*
X155384286Y-120885276D01*
X155384286Y-120885276D02*
X155479524Y-120790038D01*
X155479524Y-120790038D02*
X155622381Y-120742419D01*
X155622381Y-120742419D02*
X155717619Y-120742419D01*
X155717619Y-120742419D02*
X155860476Y-120790038D01*
X155860476Y-120790038D02*
X155908095Y-120837657D01*
X156479524Y-121742419D02*
X156384286Y-121694800D01*
X156384286Y-121694800D02*
X156336667Y-121647180D01*
X156336667Y-121647180D02*
X156289048Y-121551942D01*
X156289048Y-121551942D02*
X156289048Y-121266228D01*
X156289048Y-121266228D02*
X156336667Y-121170990D01*
X156336667Y-121170990D02*
X156384286Y-121123371D01*
X156384286Y-121123371D02*
X156479524Y-121075752D01*
X156479524Y-121075752D02*
X156622381Y-121075752D01*
X156622381Y-121075752D02*
X156717619Y-121123371D01*
X156717619Y-121123371D02*
X156765238Y-121170990D01*
X156765238Y-121170990D02*
X156812857Y-121266228D01*
X156812857Y-121266228D02*
X156812857Y-121551942D01*
X156812857Y-121551942D02*
X156765238Y-121647180D01*
X156765238Y-121647180D02*
X156717619Y-121694800D01*
X156717619Y-121694800D02*
X156622381Y-121742419D01*
X156622381Y-121742419D02*
X156479524Y-121742419D01*
X157241429Y-121075752D02*
X157241429Y-121742419D01*
X157241429Y-121170990D02*
X157289048Y-121123371D01*
X157289048Y-121123371D02*
X157384286Y-121075752D01*
X157384286Y-121075752D02*
X157527143Y-121075752D01*
X157527143Y-121075752D02*
X157622381Y-121123371D01*
X157622381Y-121123371D02*
X157670000Y-121218609D01*
X157670000Y-121218609D02*
X157670000Y-121742419D01*
X158146191Y-121075752D02*
X158146191Y-121742419D01*
X158146191Y-121170990D02*
X158193810Y-121123371D01*
X158193810Y-121123371D02*
X158289048Y-121075752D01*
X158289048Y-121075752D02*
X158431905Y-121075752D01*
X158431905Y-121075752D02*
X158527143Y-121123371D01*
X158527143Y-121123371D02*
X158574762Y-121218609D01*
X158574762Y-121218609D02*
X158574762Y-121742419D01*
D11*
X145566667Y-96944819D02*
X145566667Y-97754342D01*
X145566667Y-97754342D02*
X145614286Y-97849580D01*
X145614286Y-97849580D02*
X145661905Y-97897200D01*
X145661905Y-97897200D02*
X145757143Y-97944819D01*
X145757143Y-97944819D02*
X145947619Y-97944819D01*
X145947619Y-97944819D02*
X146042857Y-97897200D01*
X146042857Y-97897200D02*
X146090476Y-97849580D01*
X146090476Y-97849580D02*
X146138095Y-97754342D01*
X146138095Y-97754342D02*
X146138095Y-96944819D01*
X147138095Y-97944819D02*
X146566667Y-97944819D01*
X146852381Y-97944819D02*
X146852381Y-96944819D01*
X146852381Y-96944819D02*
X146757143Y-97087676D01*
X146757143Y-97087676D02*
X146661905Y-97182914D01*
X146661905Y-97182914D02*
X146566667Y-97230533D01*
X148328572Y-97563866D02*
X149090477Y-97563866D01*
X150804762Y-97944819D02*
X150328572Y-97944819D01*
X150328572Y-97944819D02*
X150328572Y-96944819D01*
X151138096Y-97944819D02*
X151138096Y-96944819D01*
X151138096Y-96944819D02*
X151471429Y-97659104D01*
X151471429Y-97659104D02*
X151804762Y-96944819D01*
X151804762Y-96944819D02*
X151804762Y-97944819D01*
X152804762Y-97944819D02*
X152233334Y-97944819D01*
X152519048Y-97944819D02*
X152519048Y-96944819D01*
X152519048Y-96944819D02*
X152423810Y-97087676D01*
X152423810Y-97087676D02*
X152328572Y-97182914D01*
X152328572Y-97182914D02*
X152233334Y-97230533D01*
X153423810Y-96944819D02*
X153519048Y-96944819D01*
X153519048Y-96944819D02*
X153614286Y-96992438D01*
X153614286Y-96992438D02*
X153661905Y-97040057D01*
X153661905Y-97040057D02*
X153709524Y-97135295D01*
X153709524Y-97135295D02*
X153757143Y-97325771D01*
X153757143Y-97325771D02*
X153757143Y-97563866D01*
X153757143Y-97563866D02*
X153709524Y-97754342D01*
X153709524Y-97754342D02*
X153661905Y-97849580D01*
X153661905Y-97849580D02*
X153614286Y-97897200D01*
X153614286Y-97897200D02*
X153519048Y-97944819D01*
X153519048Y-97944819D02*
X153423810Y-97944819D01*
X153423810Y-97944819D02*
X153328572Y-97897200D01*
X153328572Y-97897200D02*
X153280953Y-97849580D01*
X153280953Y-97849580D02*
X153233334Y-97754342D01*
X153233334Y-97754342D02*
X153185715Y-97563866D01*
X153185715Y-97563866D02*
X153185715Y-97325771D01*
X153185715Y-97325771D02*
X153233334Y-97135295D01*
X153233334Y-97135295D02*
X153280953Y-97040057D01*
X153280953Y-97040057D02*
X153328572Y-96992438D01*
X153328572Y-96992438D02*
X153423810Y-96944819D01*
X154328572Y-97373390D02*
X154233334Y-97325771D01*
X154233334Y-97325771D02*
X154185715Y-97278152D01*
X154185715Y-97278152D02*
X154138096Y-97182914D01*
X154138096Y-97182914D02*
X154138096Y-97135295D01*
X154138096Y-97135295D02*
X154185715Y-97040057D01*
X154185715Y-97040057D02*
X154233334Y-96992438D01*
X154233334Y-96992438D02*
X154328572Y-96944819D01*
X154328572Y-96944819D02*
X154519048Y-96944819D01*
X154519048Y-96944819D02*
X154614286Y-96992438D01*
X154614286Y-96992438D02*
X154661905Y-97040057D01*
X154661905Y-97040057D02*
X154709524Y-97135295D01*
X154709524Y-97135295D02*
X154709524Y-97182914D01*
X154709524Y-97182914D02*
X154661905Y-97278152D01*
X154661905Y-97278152D02*
X154614286Y-97325771D01*
X154614286Y-97325771D02*
X154519048Y-97373390D01*
X154519048Y-97373390D02*
X154328572Y-97373390D01*
X154328572Y-97373390D02*
X154233334Y-97421009D01*
X154233334Y-97421009D02*
X154185715Y-97468628D01*
X154185715Y-97468628D02*
X154138096Y-97563866D01*
X154138096Y-97563866D02*
X154138096Y-97754342D01*
X154138096Y-97754342D02*
X154185715Y-97849580D01*
X154185715Y-97849580D02*
X154233334Y-97897200D01*
X154233334Y-97897200D02*
X154328572Y-97944819D01*
X154328572Y-97944819D02*
X154519048Y-97944819D01*
X154519048Y-97944819D02*
X154614286Y-97897200D01*
X154614286Y-97897200D02*
X154661905Y-97849580D01*
X154661905Y-97849580D02*
X154709524Y-97754342D01*
X154709524Y-97754342D02*
X154709524Y-97563866D01*
X154709524Y-97563866D02*
X154661905Y-97468628D01*
X154661905Y-97468628D02*
X154614286Y-97421009D01*
X154614286Y-97421009D02*
X154519048Y-97373390D01*
X155614286Y-96944819D02*
X155138096Y-96944819D01*
X155138096Y-96944819D02*
X155090477Y-97421009D01*
X155090477Y-97421009D02*
X155138096Y-97373390D01*
X155138096Y-97373390D02*
X155233334Y-97325771D01*
X155233334Y-97325771D02*
X155471429Y-97325771D01*
X155471429Y-97325771D02*
X155566667Y-97373390D01*
X155566667Y-97373390D02*
X155614286Y-97421009D01*
X155614286Y-97421009D02*
X155661905Y-97516247D01*
X155661905Y-97516247D02*
X155661905Y-97754342D01*
X155661905Y-97754342D02*
X155614286Y-97849580D01*
X155614286Y-97849580D02*
X155566667Y-97897200D01*
X155566667Y-97897200D02*
X155471429Y-97944819D01*
X155471429Y-97944819D02*
X155233334Y-97944819D01*
X155233334Y-97944819D02*
X155138096Y-97897200D01*
X155138096Y-97897200D02*
X155090477Y-97849580D01*
X156090477Y-97563866D02*
X156852382Y-97563866D01*
X157233334Y-96944819D02*
X157852381Y-96944819D01*
X157852381Y-96944819D02*
X157519048Y-97325771D01*
X157519048Y-97325771D02*
X157661905Y-97325771D01*
X157661905Y-97325771D02*
X157757143Y-97373390D01*
X157757143Y-97373390D02*
X157804762Y-97421009D01*
X157804762Y-97421009D02*
X157852381Y-97516247D01*
X157852381Y-97516247D02*
X157852381Y-97754342D01*
X157852381Y-97754342D02*
X157804762Y-97849580D01*
X157804762Y-97849580D02*
X157757143Y-97897200D01*
X157757143Y-97897200D02*
X157661905Y-97944819D01*
X157661905Y-97944819D02*
X157376191Y-97944819D01*
X157376191Y-97944819D02*
X157280953Y-97897200D01*
X157280953Y-97897200D02*
X157233334Y-97849580D01*
X158280953Y-97849580D02*
X158328572Y-97897200D01*
X158328572Y-97897200D02*
X158280953Y-97944819D01*
X158280953Y-97944819D02*
X158233334Y-97897200D01*
X158233334Y-97897200D02*
X158280953Y-97849580D01*
X158280953Y-97849580D02*
X158280953Y-97944819D01*
X158661905Y-96944819D02*
X159280952Y-96944819D01*
X159280952Y-96944819D02*
X158947619Y-97325771D01*
X158947619Y-97325771D02*
X159090476Y-97325771D01*
X159090476Y-97325771D02*
X159185714Y-97373390D01*
X159185714Y-97373390D02*
X159233333Y-97421009D01*
X159233333Y-97421009D02*
X159280952Y-97516247D01*
X159280952Y-97516247D02*
X159280952Y-97754342D01*
X159280952Y-97754342D02*
X159233333Y-97849580D01*
X159233333Y-97849580D02*
X159185714Y-97897200D01*
X159185714Y-97897200D02*
X159090476Y-97944819D01*
X159090476Y-97944819D02*
X158804762Y-97944819D01*
X158804762Y-97944819D02*
X158709524Y-97897200D01*
X158709524Y-97897200D02*
X158661905Y-97849580D01*
D12*
%TO.C,C1*%
X134900000Y-97950000D02*
X134900000Y-106185000D01*
X134900000Y-106185000D02*
X139420000Y-106185000D01*
X139420000Y-106185000D02*
X139420000Y-97950000D01*
%TO.C,C2*%
X137211252Y-110090000D02*
X135788748Y-110090000D01*
X137211252Y-111910000D02*
X135788748Y-111910000D01*
%TO.C,C3*%
X162840000Y-97950000D02*
X162840000Y-106185000D01*
X162840000Y-106185000D02*
X167360000Y-106185000D01*
X167360000Y-106185000D02*
X167360000Y-97950000D01*
%TO.C,C4*%
X164928748Y-110090000D02*
X166351252Y-110090000D01*
X164928748Y-111910000D02*
X166351252Y-111910000D01*
%TO.C,U1 - LM1085-3.3*%
X147575000Y-98940000D02*
X147575000Y-100750000D01*
X147575000Y-109340000D02*
X147575000Y-107530000D01*
X149075000Y-98940000D02*
X147575000Y-98940000D01*
X149075000Y-109340000D02*
X147575000Y-109340000D01*
X145012500Y-100750000D02*
X144772500Y-100420000D01*
X145252500Y-100420000D01*
X145012500Y-100750000D01*
G36*
X145012500Y-100750000D02*
G01*
X144772500Y-100420000D01*
X145252500Y-100420000D01*
X145012500Y-100750000D01*
G37*
%TD*%
M02*
